HIERARCHY
ROOT Hips
{
  OFFSET -33.9132 29.2015 117.021
  CHANNELS 6 Xposition Yposition Zposition Zrotation Xrotation Yrotation
  JOINT LeftUpLeg
  {
    OFFSET 8.64259 1.95398 -2.38835
    CHANNELS 3 Zrotation Xrotation Yrotation
    JOINT LeftLeg
    {
      OFFSET 43.7702 0 0
      CHANNELS 3 Zrotation Xrotation Yrotation
      JOINT LeftFoot
      {
        OFFSET 40.6238 0 0
        CHANNELS 3 Zrotation Xrotation Yrotation
        JOINT LeftToeBase
        {
          OFFSET 12.7242 0 0
          CHANNELS 3 Zrotation Xrotation Yrotation
          End Site
          {
            OFFSET 0 0 0
          }
        }
      }
    }
  }
  JOINT RightUpLeg
  {
    OFFSET -8.2249 1.95398 -2.59336
    CHANNELS 3 Zrotation Xrotation Yrotation
    JOINT RightLeg
    {
      OFFSET 43.5653 0 0
      CHANNELS 3 Zrotation Xrotation Yrotation
      JOINT RightFoot
      {
        OFFSET 40.6238 0 0
        CHANNELS 3 Zrotation Xrotation Yrotation
        JOINT RightToeBase
        {
          OFFSET 12.7242 0 0
          CHANNELS 3 Zrotation Xrotation Yrotation
          End Site
          {
            OFFSET 0 0 0
          }
        }
      }
    }
  }
  JOINT Spine
  {
    OFFSET 0.165834 0.87714 6.61349
    CHANNELS 3 Zrotation Xrotation Yrotation
    JOINT Spine1
    {
      OFFSET 7.38963 1.71661e-005 0
      CHANNELS 3 Zrotation Xrotation Yrotation
      JOINT Spine2
      {
        OFFSET 11.9445 1.14441e-005 0
        CHANNELS 3 Zrotation Xrotation Yrotation
        JOINT Spine3
        {
          OFFSET 14.7254 4.19617e-005 0
          CHANNELS 3 Zrotation Xrotation Yrotation
          JOINT Spine4
          {
            OFFSET 10.9679 0 0
            CHANNELS 3 Zrotation Xrotation Yrotation
            JOINT RightShoulder
            {
              OFFSET 2.46616 -1.6653 3.69651
              CHANNELS 3 Zrotation Xrotation Yrotation
              JOINT RightArm
              {
                OFFSET 13.0012 0 0
                CHANNELS 3 Zrotation Xrotation Yrotation
                JOINT RightForeArm
                {
                  OFFSET 28.7848 1.62311e-005 0
                  CHANNELS 3 Zrotation Xrotation Yrotation
                  JOINT RightHand
                  {
                    OFFSET 26.5688 1.62095e-005 0
                    CHANNELS 3 Zrotation Xrotation Yrotation
                    End Site
                    {
                      OFFSET 0 0 0
                    }
                  }
                }
              }
            }
            JOINT LeftShoulder
            {
              OFFSET 2.38034 -1.29275 -3.7523
              CHANNELS 3 Zrotation Xrotation Yrotation
              JOINT LeftArm
              {
                OFFSET 16.3182 6.07031e-005 0
                CHANNELS 3 Zrotation Xrotation Yrotation
                JOINT LeftForeArm
                {
                  OFFSET 27.0901 0 0
                  CHANNELS 3 Zrotation Xrotation Yrotation
                  JOINT LeftHand
                  {
                    OFFSET 24.5451 1.51738e-005 0
                    CHANNELS 3 Zrotation Xrotation Yrotation
                    End Site
                    {
                      OFFSET 0 0 0
                    }
                  }
                }
              }
            }
            JOINT Neck
            {
              OFFSET 5.0226 -0.0266342 0
              CHANNELS 3 Zrotation Xrotation Yrotation
              JOINT Head
              {
                OFFSET 6.69364 2.86102e-005 0
                CHANNELS 3 Zrotation Xrotation Yrotation
                End Site
                {
                  OFFSET 0 0 0
                }
              }
            }
          }
        }
      }
    }
  }
}
MOTION
Frames:	18
Frame Time:	0.0416667
-154.975 99.5935 105.614 103.824 -67.8497 100.907 -174.3 -3.74523 90.7379 -7.64854 -4.38444 1.15625 67.0031 3.7893 -3.48775 17.1458 -10.4415 8.43632 171.748 -2.13627 86.4339 -10.3945 -12.4829 -0.228371 64.4048 -3.01913 -0.243198 26.3903 0.174082 3.43192 0.254905 7.57203 -90.2026 11.7305 0.412018 -0.447137 0.0595644 0.391926 -0.464838 -22.4758 0.527336 -0.30264 -2.46314 0.527347 -0.302631 93.8058 -23.8718 -100.973 57.2124 0.281177 -8.35184 -5.08068 -38.6438 -5.32625 -17.7327 1.61732 -15.9894 -86.2051 -48.5809 84.2059 -27.8518 -6.88057 -13.4609 -11.9847 25.8253 -0.0194134 6.13297 -0.640154 -15.0572 3.10753 -6.91677 0.354432 -6.7068 -6.80472 -2.39598 
-154.991 99.634 105.588 103.66 -67.7542 100.719 -174.342 -3.48385 90.6619 -8.03231 -5.43322 1.22113 66.6697 3.13959 -4.93166 17.6447 -9.79032 7.85013 171.754 -2.18856 86.4181 -10.2029 -11.947 -0.240026 64.5422 -3.07828 0.382766 26.7997 0.311793 2.25632 0.202156 7.55589 -90.1808 11.7625 0.317163 -0.39397 0.0915582 0.299522 -0.407551 -22.4436 0.420895 -0.28043 -2.431 0.420906 -0.280435 93.3227 -24.8478 -101.712 56.217 0.776463 -8.32801 -5.06207 -38.3424 -5.31631 -17.4614 1.6629 -16.4722 -86.8753 -48.5682 83.1783 -27.0998 -6.85394 -12.2531 -12.1144 23.9878 -0.0191264 4.80944 -0.533601 -15.3842 2.86512 -6.68535 0.00977274 -6.40379 -6.53571 -2.10261 
-155 99.608 105.563 103.859 -67.7349 100.9 -174.385 -3.84874 90.6813 -7.64784 -5.14156 1.27046 67.4233 3.80877 -4.84705 16.8142 -10.8888 8.83789 171.725 -2.07058 86.3759 -10.5843 -11.8334 -0.22072 65.0087 -3.19585 1.20754 25.4533 0.995473 1.9224 0.210327 7.55688 -90.1838 11.7606 0.332044 -0.401437 0.0896211 0.314041 -0.415664 -22.4456 0.43733 -0.283089 -2.43295 0.437332 -0.283092 93.4105 -24.8125 -101.532 56.2522 0.756519 -8.33465 -5.07218 -38.5064 -5.32163 -17.4495 1.65736 -16.447 -86.6881 -48.4849 83.4513 -27.2509 -6.72357 -12.3395 -12.1996 23.1156 -0.0189999 3.19212 -0.421288 -16.6456 3.07348 -6.56567 0.0512349 -6.62987 -6.42334 -1.98081 
-155.058 99.6181 105.58 104.144 -67.5792 101.377 -174.348 -3.70396 90.9451 -8.02505 -5.11933 1.42394 67.4529 3.66541 -4.96454 16.9405 -10.6326 8.54378 171.896 -2.3875 86.6822 -10.3637 -11.7765 -0.255412 64.7769 -3.16596 0.918215 25.6298 0.920297 1.91225 0.2038 7.56172 -90.1993 11.7509 0.311775 -0.43023 0.0799169 0.292539 -0.443533 -22.4552 0.42665 -0.316639 -2.44254 0.426659 -0.316636 93.4634 -24.8656 -101.399 56.346 0.691781 -8.3823 -5.09223 -38.8306 -5.33247 -17.4876 1.60945 -16.096 -86.5037 -48.5446 83.7429 -26.8035 -6.25831 -12.4003 -12.4221 22.7772 -0.0189524 3.30452 -0.466834 -17.1054 2.92296 -6.56126 0.0444221 -6.6311 -6.41278 -2.16922 
-155.142 99.6162 105.591 104.668 -67.5141 101.793 -174.304 -3.85566 90.9418 -8.05189 -4.88901 1.38324 67.3166 3.68032 -4.81585 16.449 -10.9344 8.54136 171.885 -2.26554 86.6924 -11.0643 -11.932 -0.269988 65.1041 -3.38986 0.565329 25.2775 1.0575 1.98151 0.20834 7.56934 -90.2085 11.7357 0.316545 -0.448887 0.0647078 0.296483 -0.462395 -22.4704 0.436811 -0.332999 -2.45774 0.436819 -0.333003 93.4425 -24.5822 -101.539 56.489 0.673907 -8.25434 -5.08968 -38.7823 -5.33117 -17.7541 1.60753 -15.9113 -86.782 -49.2472 83.4324 -26.0909 -6.35885 -12.0485 -12.4491 22.602 -0.0189282 3.96585 -0.565247 -17.1092 2.64875 -6.39326 0.591769 -6.63604 -6.32554 -2.52382 
-155.255 99.6295 105.65 104.797 -67.2739 101.691 -174.448 -4.02783 90.7665 -7.83202 -4.80193 1.50476 67.0392 3.62631 -4.72635 17.1998 -10.5713 8.706 171.8 -2.23679 86.5598 -11.3601 -11.7021 -0.275112 65.3113 -3.47613 0.58873 25.0584 1.17136 1.92411 0.210334 7.55262 -90.1913 11.7691 0.328362 -0.416054 0.0981523 0.30973 -0.430115 -22.437 0.438234 -0.298131 -2.42438 0.438228 -0.29814 93.4818 -24.6275 -101.438 56.5525 0.727228 -8.04621 -5.08408 -38.699 -5.32807 -17.3796 1.5992 -16.0977 -86.3631 -48.6059 83.9676 -26.6336 -6.15073 -12.2578 -12.5591 22.5328 -0.0189187 4.20079 -0.583677 -16.9549 2.18032 -6.45784 0.553789 -6.57131 -6.39687 -2.18545 
-155.443 99.6257 105.774 105.364 -67.0572 102.193 -174.407 -4.47778 90.899 -7.45394 -4.53485 1.58878 66.892 3.71671 -4.58696 17.1662 -10.5187 8.5837 171.87 -2.51891 86.6905 -11.4944 -11.4986 -0.321838 65.4287 -3.47729 0.559209 25.0858 1.15177 1.94997 0.243146 7.58686 -90.2046 11.7008 0.387675 -0.448289 0.0297878 0.367573 -0.46492 -22.5055 0.504476 -0.311052 -2.49284 0.504483 -0.31106 93.5442 -24.21 -101.44 57.2028 0.404524 -8.06265 -5.06798 -38.4379 -5.31949 -17.5436 1.52679 -15.5077 -86.492 -48.293 83.7203 -27.1051 -7.0418 -12.2833 -12.1228 23.5663 -0.0190645 4.20649 -0.588628 -17.2931 1.92331 -6.3705 0.65497 -6.54101 -6.3347 -1.99485 
-155.738 99.6393 105.967 105.617 -66.74 102.43 -174.241 -4.52594 91.1731 -7.81618 -4.11692 1.57573 66.9192 3.49939 -5.48817 17.8803 -11.1618 10.3906 172.149 -2.92689 87.0463 -11.3159 -10.7707 -0.460099 65.5084 -3.51915 0.600733 24.8974 1.24128 1.93054 0.240023 7.61827 -90.261 11.6381 0.355264 -0.557077 -0.0329531 0.3304 -0.572178 -22.5679 0.506248 -0.424561 -2.55525 0.506261 -0.424556 93.7764 -23.3619 -101.209 57.6336 0.129901 -8.22021 -5.00769 -37.4512 -5.28767 -16.8304 1.63078 -16.7121 -86.16 -49.4796 84.41 -25.5426 -6.59335 -12.4273 -12.4456 23.2757 -0.0190227 4.02801 -0.590011 -17.6348 2.21514 -6.17974 1.33955 -7.23697 -6.24586 -1.92794 
-156.163 99.6232 106.233 105.817 -65.8853 102.489 -173.805 -4.84587 91.7291 -7.51617 -2.98413 1.31105 66.7775 3.66173 -5.44804 17.9287 -10.9403 10.0714 172.363 -3.2579 87.4116 -11.6445 -9.87308 -0.528674 65.7924 -3.58144 0.382813 24.7897 1.29277 1.91852 0.223494 7.6217 -90.2788 11.631 0.313917 -0.58816 -0.0400791 0.287735 -0.601418 -22.5748 0.47618 -0.466621 -2.56216 0.476176 -0.466628 93.5335 -23.5932 -101.674 57.2823 0.481473 -7.78416 -4.99128 -37.1773 -5.27924 -17.0612 1.64697 -16.6415 -86.3752 -48.5326 83.9378 -26.5104 -6.94939 -11.2622 -12.2525 21.4009 -0.0187686 5.79883 -0.670528 -15.0877 0.905273 -6.11002 1.28827 -6.60927 -6.17797 -1.78452 
-156.79 99.5808 106.419 104.988 -64.83 101.715 -173.251 -4.38625 92.5154 -7.39961 -0.283012 0.83381 66.0406 3.88726 -3.58571 17.922 -10.3634 9.10201 172.679 -3.24095 88.0677 -11.7665 -8.62637 -0.430811 65.9566 -3.56091 0.0415759 24.4884 1.41281 1.96815 0.312605 7.65646 -90.2559 11.562 0.502196 -0.561721 -0.108972 0.476978 -0.583283 -22.6444 0.647794 -0.384821 -2.63172 0.647793 -0.384828 93.1826 -25.2124 -101.894 55.8559 1.29148 -7.46899 -4.9761 -36.9375 -5.27055 -16.6223 1.77921 -17.8885 -85.9054 -46.9222 84.4104 -27.5737 -7.08086 -12.1456 -12.0771 23.1925 -0.0190108 4.84732 -0.62319 -16.4605 0.810637 -6.21046 0.583965 -6.77945 -6.17471 -1.7065 
-157.654 99.5393 106.367 102.164 -63.0058 98.577 -173.471 -3.14175 92.4846 -6.8873 2.03539 0.77453 65.1381 3.76068 -3.11704 18.342 -10.1415 9.16558 173.036 -1.93075 88.374 -12.32 -6.56364 -0.377725 66.2746 -3.35826 -0.438571 23.8484 1.57123 2.39665 0.416081 7.67779 -90.2727 11.52 0.700318 -0.614882 -0.150901 0.67258 -0.645108 -22.6871 0.852744 -0.375972 -2.6744 0.852734 -0.375978 93.2182 -25.3543 -101.77 55.5144 1.48393 -7.38933 -4.9722 -36.8569 -5.2696 -16.4752 1.69487 -17.4148 -86.1065 -46.2189 83.9851 -28.2674 -7.63104 -12.9148 -11.692 22.7873 -0.0189538 5.30447 -0.758352 -17.3083 0.827087 -5.42565 0.772908 -6.68315 -5.47693 -0.112496 
-158.681 99.5033 105.815 98.672 -59.08 94.0698 -174.061 -0.364113 91.7793 -7.43777 5.44849 0.463156 64.1682 3.35462 -3.97318 17.7178 -10.7225 9.48834 172.538 0.0985814 87.777 -13.4597 -3.23944 0.198572 66.7754 -3.16208 -0.883539 23.4823 1.55444 2.99197 0.453147 7.73196 -90.3526 11.4122 0.737046 -0.776707 -0.258805 0.702144 -0.808405 -22.7947 0.936395 -0.519285 -2.78203 0.936402 -0.519291 93.3862 -24.6568 -101.637 55.6042 1.50242 -7.23499 -4.92836 -36.1166 -5.24823 -18.0498 1.63144 -15.8895 -86.3938 -47.3331 83.7164 -27.1025 -7.67387 -13.4606 -11.5371 23.0294 -0.0189877 4.32515 -0.793914 -19.7223 0.445763 -2.49346 4.75771 -8.77313 -3.19263 0.595497 
-159.575 99.2533 104.724 97.6739 -52.3446 90.7468 -174.533 1.89812 90.195 -8.28668 10.9802 -0.577139 62.9343 3.40331 -4.28898 17.7762 -10.6911 9.49792 171.01 2.794 85.6998 -17.8058 1.60467 1.05781 68.7736 -3.329 -0.642988 23.4355 1.82696 2.15688 0.370465 7.94996 -90.4106 10.9755 0.547419 -0.869012 -0.695685 0.508648 -0.892265 -23.2303 0.783254 -0.664325 -3.21762 0.783274 -0.664327 93.3188 -23.7845 -102.085 54.2025 2.46177 -6.41757 -5.27819 -41.6894 -5.43721 -17.5372 1.60891 -16.0604 -86.2272 -48.0501 84.0889 -25.4328 -6.47311 -13.4312 -11.8181 22.4098 -0.0194938 4.58471 -1.0848 -22.4495 -3.24629 1.43466 8.46185 -10.6589 0.265697 3.17706 
-160.427 99.0636 103.626 95.8316 -45.7182 87.1827 -174.244 6.34777 89.3147 -10.013 17.1322 -1.98866 60.2708 1.17069 -4.83252 20.4178 -9.29955 9.89773 169.647 6.12177 83.825 -21.5004 6.53518 2.03664 69.9244 -3.70695 -0.41538 23.9818 1.67622 1.84396 0.406359 8.07406 -90.548 10.7272 0.55666 -1.1406 -0.944153 0.505942 -1.16399 -23.4774 0.873711 -0.92058 -3.46476 0.873715 -0.920596 93.596 -22.7865 -101.813 52.9051 3.41687 -5.3819 -5.13438 -39.4961 -5.35538 -17.6944 1.84139 -17.5026 -86.4734 -48.3652 83.7605 -24.9393 -7.00722 -12.4895 -10.7913 21.7496 -1.60445 5.35742 -1.3437 -23.6777 -7.3681 4.77519 10.9727 -14.2342 3.48572 4.76223 
-160.957 98.7044 102.941 94.5205 -43.0143 84.6454 -173.342 8.29245 90.8786 -7.62159 15.2368 -2.86427 61.5218 2.18326 -4.16238 22.7301 -7.15239 8.5497 168.711 10.0155 82.3965 -25.9542 7.92978 2.46921 70.3828 -5.16224 -0.773425 25.8571 0.985975 1.31 0.582282 8.13799 -90.5702 10.6017 0.89754 -1.21422 -1.06959 0.84323 -1.25254 -23.6045 1.22095 -0.888348 -3.59182 1.22096 -0.888351 93.6635 -22.3263 -101.822 51.5377 4.37926 -4.29949 -4.91834 -35.9418 -5.24222 -16.667 1.73367 -17.539 -86.3627 -47.8799 83.8532 -24.3646 -8.79995 -9.42622 -10.1485 23.0293 -1.54178 7.10194 -1.5977 -22.8353 -12.0204 7.50492 12.1046 -14.499 6.57697 5.68629 
-160.86 98.2929 102.694 94.4398 -42.4051 83.7351 -172.758 9.57283 94.8089 -7.71702 13.0283 -1.6982 63.6135 3.40076 -4.01887 20.7666 -8.62631 9.09998 167.703 12.0191 81.3577 -29.0429 7.29958 2.64271 71.0033 -6.67093 -1.20251 27.0476 0.653591 0.545732 0.56341 8.27163 -90.5312 10.3339 0.879387 -1.13161 -1.33727 0.828739 -1.16922 -23.8725 1.17882 -0.815014 -3.85984 1.17881 -0.815016 93.5864 -21.9153 -102.147 51.3071 4.57879 -3.99041 -4.76191 -33.1715 -5.16883 -18.9844 1.84318 -16.6237 -86.2515 -48.8165 84.1702 -21.3907 -10.4235 -5.22049 -10.5465 21.6391 -0.328932 5.51734 -1.23432 -21.76 -14.8643 9.95356 13.131 -14.2375 9.25398 7.04533 
-159.758 97.9456 102.338 94.7809 -42.8435 82.9483 -172.256 9.4894 98.4358 -8.78936 10.3089 -0.044173 63.4236 3.03096 -3.10628 18.6351 -9.97872 9.19524 166.307 13.5105 79.5172 -31.6814 5.3237 2.43176 71.434 -7.79144 -1.16484 28.686 0.0111709 0.130162 0.424853 8.36175 -90.4122 10.1523 0.658673 -0.873927 -1.51882 0.619575 -0.902089 -24.0539 0.890858 -0.635575 -4.04127 0.89087 -0.635589 93.6981 -21.5523 -102.021 51.8629 4.56331 -3.34048 -4.64864 -31.0569 -5.11999 -21.411 1.90313 -15.5849 -85.7498 -48.6251 84.9095 -21.677 -12.7821 -1.03685 -10.0488 20.5536 -0.022864 8.92551 -1.18015 -15.9697 -18.5129 11.7043 14.9349 -13.3825 11.5061 8.07998 
-158.008 97.152 101.56 94.5116 -44.7763 82.4183 -171.309 10.6487 102.421 -13.4338 8.59742 0.829417 62.6106 1.90876 -2.03674 14.2968 -11.0423 6.59893 165.246 16.2047 77.8586 -35.5309 1.87672 2.08637 72.373 -9.05065 -1.14669 29.7136 -0.262844 -0.697259 0.451367 8.38751 -90.3021 10.101 0.761854 -0.663349 -1.56987 0.731914 -0.696243 -24.1062 0.925986 -0.403707 -4.09358 0.925994 -0.403706 93.7309 -21.9917 -101.787 51.0036 5.48598 -1.581 -4.73945 -32.759 -5.15852 -20.5464 1.98532 -16.5094 -84.8982 -47.3294 86.0408 -24.1073 -14.1064 3.35715 -9.36187 20.4758 -0.213363 8.66427 -1.17395 -16.0412 -20.851 13.4278 16.832 -13.6154 13.666 8.14709 
